<?xml version="1.0" encoding="UTF-8"?>
<svg xmlns="http://www.w3.org/2000/svg" xmlns:xlink="http://www.w3.org/1999/xlink" width="600" height="450" viewBox="0 0 600 450">
<defs>
<g>
<g id="glyph-0-0-d25423f6">
<path d="M 9.125 -6.140625 C 9.125 -1.9375 7.65625 0.265625 4.953125 0.265625 C 2.21875 0.265625 0.78125 -1.9375 0.78125 -6.25 C 0.78125 -10.53125 2.203125 -12.765625 4.953125 -12.765625 C 7.71875 -12.765625 9.125 -10.5625 9.125 -6.140625 Z M 7.5 -6.28125 C 7.5 -9.703125 6.65625 -11.359375 4.953125 -11.359375 C 3.234375 -11.359375 2.390625 -9.71875 2.390625 -6.234375 C 2.390625 -2.734375 3.234375 -1.046875 4.90625 -1.046875 C 6.671875 -1.046875 7.5 -2.65625 7.5 -6.28125 Z M 7.5 -6.28125 "/>
</g>
<g id="glyph-1-0-d25423f6">
<path d="M 9.234375 -4.234375 C 9.234375 -1.53125 7.4375 0.265625 4.859375 0.265625 C 2.59375 0.265625 1.15625 -0.734375 0.625 -3.28125 C 0.625 -3.28125 2.21875 -3.28125 2.21875 -3.28125 C 2.59375 -1.84375 3.4375 -1.140625 4.828125 -1.140625 C 6.546875 -1.140625 7.609375 -2.171875 7.609375 -4.015625 C 7.609375 -5.90625 6.53125 -7 4.828125 -7 C 3.828125 -7 3.21875 -6.703125 2.484375 -5.8125 C 2.484375 -5.8125 1.03125 -5.8125 1.03125 -5.8125 C 1.03125 -5.8125 1.984375 -12.484375 1.984375 -12.484375 C 1.984375 -12.484375 8.5625 -12.484375 8.5625 -12.484375 C 8.5625 -12.484375 8.5625 -10.921875 8.5625 -10.921875 C 8.5625 -10.921875 3.265625 -10.921875 3.265625 -10.921875 C 3.265625 -10.921875 2.75 -7.625 2.75 -7.625 C 3.484375 -8.171875 4.21875 -8.40625 5.109375 -8.40625 C 7.5625 -8.40625 9.234375 -6.75 9.234375 -4.234375 Z M 9.234375 -4.234375 "/>
</g>
<g id="glyph-1-1-d25423f6">
<path d="M 6.25 0 C 6.25 0 4.65625 0 4.65625 0 C 4.65625 0 4.65625 -9.09375 4.65625 -9.09375 C 4.65625 -9.09375 1.84375 -9.09375 1.84375 -9.09375 C 1.84375 -9.09375 1.84375 -10.21875 1.84375 -10.21875 C 4.28125 -10.53125 4.640625 -10.796875 5.203125 -12.765625 C 5.203125 -12.765625 6.25 -12.765625 6.25 -12.765625 C 6.25 -12.765625 6.25 0 6.25 0 Z M 6.25 0 "/>
</g>
<g id="glyph-1-2-d25423f6">
<path d="M 9.125 -6.140625 C 9.125 -1.9375 7.65625 0.265625 4.953125 0.265625 C 2.21875 0.265625 0.78125 -1.9375 0.78125 -6.25 C 0.78125 -10.53125 2.203125 -12.765625 4.953125 -12.765625 C 7.71875 -12.765625 9.125 -10.5625 9.125 -6.140625 Z M 7.5 -6.28125 C 7.5 -9.703125 6.65625 -11.359375 4.953125 -11.359375 C 3.234375 -11.359375 2.390625 -9.71875 2.390625 -6.234375 C 2.390625 -2.734375 3.234375 -1.046875 4.90625 -1.046875 C 6.671875 -1.046875 7.5 -2.65625 7.5 -6.28125 Z M 7.5 -6.28125 "/>
</g>
<g id="glyph-2-0-d25423f6">
<path d="M 9.125 -6.140625 C 9.125 -1.9375 7.65625 0.265625 4.953125 0.265625 C 2.21875 0.265625 0.78125 -1.9375 0.78125 -6.25 C 0.78125 -10.53125 2.203125 -12.765625 4.953125 -12.765625 C 7.71875 -12.765625 9.125 -10.5625 9.125 -6.140625 Z M 7.5 -6.28125 C 7.5 -9.703125 6.65625 -11.359375 4.953125 -11.359375 C 3.234375 -11.359375 2.390625 -9.71875 2.390625 -6.234375 C 2.390625 -2.734375 3.234375 -1.046875 4.90625 -1.046875 C 6.671875 -1.046875 7.5 -2.65625 7.5 -6.28125 Z M 7.5 -6.28125 "/>
</g>
<g id="glyph-3-0-d25423f6">
<path d="M 9.203125 -9.015625 C 9.203125 -7.453125 8.28125 -6.125 6.5 -5.171875 C 6.5 -5.171875 4.703125 -4.1875 4.703125 -4.1875 C 3.125 -3.28125 2.5625 -2.609375 2.390625 -1.5625 C 2.390625 -1.5625 9.109375 -1.5625 9.109375 -1.5625 C 9.109375 -1.5625 9.109375 0 9.109375 0 C 9.109375 0 0.609375 0 0.609375 0 C 0.75 -2.8125 1.53125 -4.015625 4.1875 -5.53125 C 4.1875 -5.53125 5.84375 -6.46875 5.84375 -6.46875 C 6.984375 -7.109375 7.578125 -7.96875 7.578125 -8.984375 C 7.578125 -10.34375 6.5 -11.375 5.0625 -11.375 C 3.484375 -11.375 2.609375 -10.46875 2.484375 -8.328125 C 2.484375 -8.328125 0.90625 -8.328125 0.90625 -8.328125 C 0.984375 -11.4375 2.5 -12.765625 5.109375 -12.765625 C 7.53125 -12.765625 9.203125 -11.171875 9.203125 -9.015625 Z M 9.203125 -9.015625 "/>
</g>
<g id="glyph-4-0-d25423f6">
<path d="M 9.125 -6.140625 C 9.125 -1.9375 7.65625 0.265625 4.953125 0.265625 C 2.21875 0.265625 0.78125 -1.9375 0.78125 -6.25 C 0.78125 -10.53125 2.203125 -12.765625 4.953125 -12.765625 C 7.71875 -12.765625 9.125 -10.5625 9.125 -6.140625 Z M 7.5 -6.28125 C 7.5 -9.703125 6.65625 -11.359375 4.953125 -11.359375 C 3.234375 -11.359375 2.390625 -9.71875 2.390625 -6.234375 C 2.390625 -2.734375 3.234375 -1.046875 4.90625 -1.046875 C 6.671875 -1.046875 7.5 -2.65625 7.5 -6.28125 Z M 7.5 -6.28125 "/>
</g>
<g id="glyph-5-0-d25423f6">
<path d="M 9.359375 -3.0625 C 9.359375 -3.0625 7.46875 -3.0625 7.46875 -3.0625 C 7.46875 -3.0625 7.46875 0 7.46875 0 C 7.46875 0 5.890625 0 5.890625 0 C 5.890625 0 5.890625 -3.0625 5.890625 -3.0625 C 5.890625 -3.0625 0.5 -3.0625 0.5 -3.0625 C 0.5 -3.0625 0.5 -4.734375 0.5 -4.734375 C 0.5 -4.734375 6.296875 -12.765625 6.296875 -12.765625 C 6.296875 -12.765625 7.46875 -12.765625 7.46875 -12.765625 C 7.46875 -12.765625 7.46875 -4.484375 7.46875 -4.484375 C 7.46875 -4.484375 9.359375 -4.484375 9.359375 -4.484375 C 9.359375 -4.484375 9.359375 -3.0625 9.359375 -3.0625 Z M 5.890625 -4.484375 C 5.890625 -4.484375 5.890625 -10.0625 5.890625 -10.0625 C 5.890625 -10.0625 1.890625 -4.484375 1.890625 -4.484375 C 1.890625 -4.484375 5.890625 -4.484375 5.890625 -4.484375 Z M 5.890625 -4.484375 "/>
</g>
<g id="glyph-5-1-d25423f6">
<path d="M 9.234375 -3.953125 C 9.234375 -1.453125 7.484375 0.265625 5.0625 0.265625 C 2.140625 0.265625 0.78125 -1.84375 0.78125 -5.8125 C 0.78125 -10.265625 2.375 -12.765625 5.34375 -12.765625 C 7.296875 -12.765625 8.65625 -11.515625 8.96875 -9.4375 C 8.96875 -9.4375 7.375 -9.4375 7.375 -9.4375 C 7.125 -10.65625 6.359375 -11.359375 5.234375 -11.359375 C 3.421875 -11.359375 2.40625 -9.625 2.390625 -6.515625 C 3.078125 -7.453125 4.0625 -7.9375 5.328125 -7.9375 C 7.609375 -7.9375 9.234375 -6.34375 9.234375 -3.953125 Z M 7.609375 -3.828125 C 7.609375 -5.546875 6.65625 -6.53125 5.125 -6.53125 C 3.5625 -6.53125 2.484375 -5.515625 2.484375 -3.921875 C 2.484375 -2.28125 3.59375 -1.140625 5.078125 -1.140625 C 6.53125 -1.140625 7.609375 -2.234375 7.609375 -3.828125 Z M 7.609375 -3.828125 "/>
</g>
<g id="glyph-6-0-d25423f6">
<path d="M 9.125 -6.140625 C 9.125 -1.9375 7.65625 0.265625 4.953125 0.265625 C 2.21875 0.265625 0.78125 -1.9375 0.78125 -6.25 C 0.78125 -10.53125 2.203125 -12.765625 4.953125 -12.765625 C 7.71875 -12.765625 9.125 -10.5625 9.125 -6.140625 Z M 7.5 -6.28125 C 7.5 -9.703125 6.65625 -11.359375 4.953125 -11.359375 C 3.234375 -11.359375 2.390625 -9.71875 2.390625 -6.234375 C 2.390625 -2.734375 3.234375 -1.046875 4.90625 -1.046875 C 6.671875 -1.046875 7.5 -2.65625 7.5 -6.28125 Z M 7.5 -6.28125 "/>
</g>
<g id="glyph-7-0-d25423f6">
<path d="M 9.234375 -3.59375 C 9.234375 -1.28125 7.46875 0.265625 4.953125 0.265625 C 2.4375 0.265625 0.671875 -1.28125 0.671875 -3.625 C 0.671875 -5.015625 1.390625 -6.015625 2.84375 -6.71875 C 1.546875 -7.53125 1.109375 -8.171875 1.109375 -9.359375 C 1.109375 -11.359375 2.703125 -12.765625 4.953125 -12.765625 C 7.21875 -12.765625 8.78125 -11.359375 8.78125 -9.359375 C 8.78125 -8.15625 8.359375 -7.5 7.03125 -6.71875 C 8.515625 -6.015625 9.234375 -5.015625 9.234375 -3.59375 Z M 7.15625 -9.328125 C 7.15625 -10.5625 6.296875 -11.359375 4.953125 -11.359375 C 3.625 -11.359375 2.734375 -10.5625 2.734375 -9.34375 C 2.734375 -8.140625 3.625 -7.34375 4.953125 -7.34375 C 6.28125 -7.34375 7.15625 -8.140625 7.15625 -9.328125 Z M 7.609375 -3.578125 C 7.609375 -5.078125 6.53125 -6.015625 4.953125 -6.015625 C 3.359375 -6.015625 2.28125 -5.078125 2.28125 -3.578125 C 2.28125 -2.09375 3.359375 -1.140625 4.90625 -1.140625 C 6.53125 -1.140625 7.609375 -2.0625 7.609375 -3.578125 Z M 7.609375 -3.578125 "/>
</g>
<g id="glyph-8-0-d25423f6">
<path d="M 9.125 -6.140625 C 9.125 -1.9375 7.65625 0.265625 4.953125 0.265625 C 2.21875 0.265625 0.78125 -1.9375 0.78125 -6.25 C 0.78125 -10.53125 2.203125 -12.765625 4.953125 -12.765625 C 7.71875 -12.765625 9.125 -10.5625 9.125 -6.140625 Z M 7.5 -6.28125 C 7.5 -9.703125 6.65625 -11.359375 4.953125 -11.359375 C 3.234375 -11.359375 2.390625 -9.71875 2.390625 -6.234375 C 2.390625 -2.734375 3.234375 -1.046875 4.90625 -1.046875 C 6.671875 -1.046875 7.5 -2.65625 7.5 -6.28125 Z M 7.5 -6.28125 "/>
</g>
</g>
</defs>
<rect x="-60" y="-45" width="720" height="540" fill="rgb(100%, 100%, 100%)" fill-opacity="1"/>
<path fill-rule="nonzero" fill="rgb(100%, 100%, 100%)" fill-opacity="1" d="M 45 406 L 584 406 L 584 16 L 45 16 Z M 45 406 "/>
<g fill="rgb(0%, 0%, 0%)" fill-opacity="1">
<use xlink:href="#glyph-0-0-d25423f6" x="112.06897" y="431.046021"/>
</g>
<g fill="rgb(0%, 0%, 0%)" fill-opacity="1">
<use xlink:href="#glyph-1-0-d25423f6" x="314.450073" y="431.046021"/>
</g>
<g fill="rgb(0%, 0%, 0%)" fill-opacity="1">
<use xlink:href="#glyph-1-1-d25423f6" x="511.827209" y="431.046021"/>
</g>
<g fill="rgb(0%, 0%, 0%)" fill-opacity="1">
<use xlink:href="#glyph-1-2-d25423f6" x="521.835205" y="431.046021"/>
</g>
<g fill="rgb(0%, 0%, 0%)" fill-opacity="1">
<use xlink:href="#glyph-2-0-d25423f6" x="24.992001" y="394.83371"/>
</g>
<g fill="rgb(0%, 0%, 0%)" fill-opacity="1">
<use xlink:href="#glyph-3-0-d25423f6" x="14.983999" y="307.291626"/>
</g>
<g fill="rgb(0%, 0%, 0%)" fill-opacity="1">
<use xlink:href="#glyph-4-0-d25423f6" x="24.992001" y="307.291626"/>
</g>
<g fill="rgb(0%, 0%, 0%)" fill-opacity="1">
<use xlink:href="#glyph-5-0-d25423f6" x="14.983999" y="219.749542"/>
</g>
<g fill="rgb(0%, 0%, 0%)" fill-opacity="1">
<use xlink:href="#glyph-6-0-d25423f6" x="24.992001" y="219.749542"/>
</g>
<g fill="rgb(0%, 0%, 0%)" fill-opacity="1">
<use xlink:href="#glyph-5-1-d25423f6" x="14.983999" y="132.207443"/>
</g>
<g fill="rgb(0%, 0%, 0%)" fill-opacity="1">
<use xlink:href="#glyph-6-0-d25423f6" x="24.992001" y="132.207443"/>
</g>
<g fill="rgb(0%, 0%, 0%)" fill-opacity="1">
<use xlink:href="#glyph-7-0-d25423f6" x="14.983999" y="44.665363"/>
</g>
<g fill="rgb(0%, 0%, 0%)" fill-opacity="1">
<use xlink:href="#glyph-8-0-d25423f6" x="24.992001" y="44.665363"/>
</g>
<path fill-rule="nonzero" fill="rgb(0%, 44.705883%, 69.803923%)" fill-opacity="0.8" d="M 69.5 388.273438 L 102.167969 388.273438 L 102.167969 383.894531 L 69.5 383.894531 Z M 69.5 388.273438 "/>
<path fill-rule="nonzero" fill="rgb(0%, 44.705883%, 69.803923%)" fill-opacity="0.8" d="M 102.167969 388.273438 L 134.835938 388.273438 L 134.835938 362.011719 L 102.167969 362.011719 Z M 102.167969 388.273438 "/>
<path fill-rule="nonzero" fill="rgb(0%, 44.705883%, 69.803923%)" fill-opacity="0.8" d="M 134.832031 388.273438 L 167.5 388.273438 L 167.5 357.632812 L 134.832031 357.632812 Z M 134.832031 388.273438 "/>
<path fill-rule="nonzero" fill="rgb(0%, 44.705883%, 69.803923%)" fill-opacity="0.8" d="M 167.5 388.273438 L 200.167969 388.273438 L 200.167969 287.601562 L 167.5 287.601562 Z M 167.5 388.273438 "/>
<path fill-rule="nonzero" fill="rgb(0%, 44.705883%, 69.803923%)" fill-opacity="0.8" d="M 200.167969 388.273438 L 232.835938 388.273438 L 232.835938 270.089844 L 200.167969 270.089844 Z M 200.167969 388.273438 "/>
<path fill-rule="nonzero" fill="rgb(0%, 44.705883%, 69.803923%)" fill-opacity="0.8" d="M 232.832031 388.273438 L 265.5 388.273438 L 265.5 147.53125 L 232.832031 147.53125 Z M 232.832031 388.273438 "/>
<path fill-rule="nonzero" fill="rgb(0%, 44.705883%, 69.803923%)" fill-opacity="0.8" d="M 265.5 388.273438 L 298.167969 388.273438 L 298.167969 68.746094 L 265.5 68.746094 Z M 265.5 388.273438 "/>
<path fill-rule="nonzero" fill="rgb(0%, 44.705883%, 69.803923%)" fill-opacity="0.8" d="M 298.167969 388.273438 L 330.835938 388.273438 L 330.835938 33.726562 L 298.167969 33.726562 Z M 298.167969 388.273438 "/>
<path fill-rule="nonzero" fill="rgb(0%, 44.705883%, 69.803923%)" fill-opacity="0.8" d="M 330.832031 388.273438 L 363.5 388.273438 L 363.5 81.875 L 330.832031 81.875 Z M 330.832031 388.273438 "/>
<path fill-rule="nonzero" fill="rgb(0%, 44.705883%, 69.803923%)" fill-opacity="0.8" d="M 363.5 388.273438 L 396.167969 388.273438 L 396.167969 103.761719 L 363.5 103.761719 Z M 363.5 388.273438 "/>
<path fill-rule="nonzero" fill="rgb(0%, 44.705883%, 69.803923%)" fill-opacity="0.8" d="M 396.167969 388.273438 L 428.835938 388.273438 L 428.835938 230.699219 L 396.167969 230.699219 Z M 396.167969 388.273438 "/>
<path fill-rule="nonzero" fill="rgb(0%, 44.705883%, 69.803923%)" fill-opacity="0.8" d="M 428.832031 388.273438 L 461.5 388.273438 L 461.5 283.222656 L 428.832031 283.222656 Z M 428.832031 388.273438 "/>
<path fill-rule="nonzero" fill="rgb(0%, 44.705883%, 69.803923%)" fill-opacity="0.8" d="M 461.5 388.273438 L 494.167969 388.273438 L 494.167969 291.976562 L 461.5 291.976562 Z M 461.5 388.273438 "/>
<path fill-rule="nonzero" fill="rgb(0%, 44.705883%, 69.803923%)" fill-opacity="0.8" d="M 494.167969 388.273438 L 526.835938 388.273438 L 526.835938 353.257812 L 494.167969 353.257812 Z M 494.167969 388.273438 "/>
<path fill-rule="nonzero" fill="rgb(0%, 44.705883%, 69.803923%)" fill-opacity="0.8" d="M 526.832031 388.273438 L 559.5 388.273438 L 559.5 379.519531 L 526.832031 379.519531 Z M 526.832031 388.273438 "/>
<path fill="none" stroke-width="1" stroke-linecap="butt" stroke-linejoin="miter" stroke="rgb(0%, 0%, 0%)" stroke-opacity="1" stroke-miterlimit="1.154701" d="M 117.074219 406.5 L 117.074219 411.5 "/>
<path fill="none" stroke-width="1" stroke-linecap="butt" stroke-linejoin="miter" stroke="rgb(0%, 0%, 0%)" stroke-opacity="1" stroke-miterlimit="1.154701" d="M 319.453125 406.5 L 319.453125 411.5 "/>
<path fill="none" stroke-width="1" stroke-linecap="butt" stroke-linejoin="miter" stroke="rgb(0%, 0%, 0%)" stroke-opacity="1" stroke-miterlimit="1.154701" d="M 521.835938 406.5 L 521.835938 411.5 "/>
<path fill="none" stroke-width="1" stroke-linecap="butt" stroke-linejoin="miter" stroke="rgb(0%, 0%, 0%)" stroke-opacity="1" stroke-miterlimit="1.154701" d="M 44.5 388.273438 L 39.5 388.273438 "/>
<path fill="none" stroke-width="1" stroke-linecap="butt" stroke-linejoin="miter" stroke="rgb(0%, 0%, 0%)" stroke-opacity="1" stroke-miterlimit="1.154701" d="M 44.5 300.730469 L 39.5 300.730469 "/>
<path fill="none" stroke-width="1" stroke-linecap="butt" stroke-linejoin="miter" stroke="rgb(0%, 0%, 0%)" stroke-opacity="1" stroke-miterlimit="1.154701" d="M 44.5 213.1875 L 39.5 213.1875 "/>
<path fill="none" stroke-width="1" stroke-linecap="butt" stroke-linejoin="miter" stroke="rgb(0%, 0%, 0%)" stroke-opacity="1" stroke-miterlimit="1.154701" d="M 44.5 125.644531 L 39.5 125.644531 "/>
<path fill="none" stroke-width="1" stroke-linecap="butt" stroke-linejoin="miter" stroke="rgb(0%, 0%, 0%)" stroke-opacity="1" stroke-miterlimit="1.154701" d="M 44.5 38.105469 L 39.5 38.105469 "/>
<path fill="none" stroke-width="1" stroke-linecap="butt" stroke-linejoin="miter" stroke="rgb(0%, 0%, 0%)" stroke-opacity="1" stroke-miterlimit="1.154701" d="M 44.5 406 L 584.5 406 "/>
<path fill="none" stroke-width="1" stroke-linecap="butt" stroke-linejoin="miter" stroke="rgb(0%, 0%, 0%)" stroke-opacity="1" stroke-miterlimit="1.154701" d="M 45 406.5 L 45 15.5 "/>
</svg>
