<?xml version="1.0" encoding="UTF-8"?>
<svg xmlns="http://www.w3.org/2000/svg" xmlns:xlink="http://www.w3.org/1999/xlink" width="600" height="450" viewBox="0 0 600 450">
<defs>
<g>
<g id="glyph-0-0-e2e6c56a">
<path d="M 9.125 -6.140625 C 9.125 -1.9375 7.65625 0.265625 4.953125 0.265625 C 2.21875 0.265625 0.78125 -1.9375 0.78125 -6.25 C 0.78125 -10.53125 2.203125 -12.765625 4.953125 -12.765625 C 7.71875 -12.765625 9.125 -10.5625 9.125 -6.140625 Z M 7.5 -6.28125 C 7.5 -9.703125 6.65625 -11.359375 4.953125 -11.359375 C 3.234375 -11.359375 2.390625 -9.71875 2.390625 -6.234375 C 2.390625 -2.734375 3.234375 -1.046875 4.90625 -1.046875 C 6.671875 -1.046875 7.5 -2.65625 7.5 -6.28125 Z M 7.5 -6.28125 "/>
</g>
<g id="glyph-0-1-e2e6c56a">
<path d="M 9.109375 -3.703125 C 9.109375 -1.296875 7.421875 0.265625 4.78125 0.265625 C 2.171875 0.265625 0.78125 -1.015625 0.578125 -3.859375 C 0.578125 -3.859375 2.15625 -3.859375 2.15625 -3.859375 C 2.265625 -2 3.109375 -1.140625 4.84375 -1.140625 C 6.5 -1.140625 7.484375 -2.09375 7.484375 -3.6875 C 7.484375 -5.109375 6.59375 -5.9375 4.84375 -5.9375 C 4.84375 -5.9375 3.984375 -5.9375 3.984375 -5.9375 C 3.984375 -5.9375 3.984375 -7.265625 3.984375 -7.265625 C 6.515625 -7.265625 7.109375 -7.828125 7.109375 -9.203125 C 7.109375 -10.546875 6.265625 -11.375 4.859375 -11.375 C 3.234375 -11.375 2.46875 -10.53125 2.4375 -8.640625 C 2.4375 -8.640625 0.84375 -8.640625 0.84375 -8.640625 C 0.90625 -11.359375 2.265625 -12.765625 4.84375 -12.765625 C 7.265625 -12.765625 8.734375 -11.453125 8.734375 -9.25 C 8.734375 -7.96875 8.140625 -7.140625 6.953125 -6.671875 C 8.484375 -6.15625 9.109375 -5.25 9.109375 -3.703125 Z M 9.109375 -3.703125 "/>
</g>
<g id="glyph-1-0-e2e6c56a">
<path d="M 6.25 0 C 6.25 0 4.65625 0 4.65625 0 C 4.65625 0 4.65625 -9.09375 4.65625 -9.09375 C 4.65625 -9.09375 1.84375 -9.09375 1.84375 -9.09375 C 1.84375 -9.09375 1.84375 -10.21875 1.84375 -10.21875 C 4.28125 -10.53125 4.640625 -10.796875 5.203125 -12.765625 C 5.203125 -12.765625 6.25 -12.765625 6.25 -12.765625 C 6.25 -12.765625 6.25 0 6.25 0 Z M 6.25 0 "/>
</g>
<g id="glyph-1-1-e2e6c56a">
<path d="M 9.125 -6.140625 C 9.125 -1.9375 7.65625 0.265625 4.953125 0.265625 C 2.21875 0.265625 0.78125 -1.9375 0.78125 -6.25 C 0.78125 -10.53125 2.203125 -12.765625 4.953125 -12.765625 C 7.71875 -12.765625 9.125 -10.5625 9.125 -6.140625 Z M 7.5 -6.28125 C 7.5 -9.703125 6.65625 -11.359375 4.953125 -11.359375 C 3.234375 -11.359375 2.390625 -9.71875 2.390625 -6.234375 C 2.390625 -2.734375 3.234375 -1.046875 4.90625 -1.046875 C 6.671875 -1.046875 7.5 -2.65625 7.5 -6.28125 Z M 7.5 -6.28125 "/>
</g>
<g id="glyph-2-0-e2e6c56a">
<path d="M 9.203125 -9.015625 C 9.203125 -7.453125 8.28125 -6.125 6.5 -5.171875 C 6.5 -5.171875 4.703125 -4.1875 4.703125 -4.1875 C 3.125 -3.28125 2.5625 -2.609375 2.390625 -1.5625 C 2.390625 -1.5625 9.109375 -1.5625 9.109375 -1.5625 C 9.109375 -1.5625 9.109375 0 9.109375 0 C 9.109375 0 0.609375 0 0.609375 0 C 0.75 -2.8125 1.53125 -4.015625 4.1875 -5.53125 C 4.1875 -5.53125 5.84375 -6.46875 5.84375 -6.46875 C 6.984375 -7.109375 7.578125 -7.96875 7.578125 -8.984375 C 7.578125 -10.34375 6.5 -11.375 5.0625 -11.375 C 3.484375 -11.375 2.609375 -10.46875 2.484375 -8.328125 C 2.484375 -8.328125 0.90625 -8.328125 0.90625 -8.328125 C 0.984375 -11.4375 2.5 -12.765625 5.109375 -12.765625 C 7.53125 -12.765625 9.203125 -11.171875 9.203125 -9.015625 Z M 9.203125 -9.015625 "/>
</g>
<g id="glyph-3-0-e2e6c56a">
<path d="M 9.125 -6.140625 C 9.125 -1.9375 7.65625 0.265625 4.953125 0.265625 C 2.21875 0.265625 0.78125 -1.9375 0.78125 -6.25 C 0.78125 -10.53125 2.203125 -12.765625 4.953125 -12.765625 C 7.71875 -12.765625 9.125 -10.5625 9.125 -6.140625 Z M 7.5 -6.28125 C 7.5 -9.703125 6.65625 -11.359375 4.953125 -11.359375 C 3.234375 -11.359375 2.390625 -9.71875 2.390625 -6.234375 C 2.390625 -2.734375 3.234375 -1.046875 4.90625 -1.046875 C 6.671875 -1.046875 7.5 -2.65625 7.5 -6.28125 Z M 7.5 -6.28125 "/>
</g>
<g id="glyph-4-0-e2e6c56a">
<path d="M 9.125 -6.140625 C 9.125 -1.9375 7.65625 0.265625 4.953125 0.265625 C 2.21875 0.265625 0.78125 -1.9375 0.78125 -6.25 C 0.78125 -10.53125 2.203125 -12.765625 4.953125 -12.765625 C 7.71875 -12.765625 9.125 -10.5625 9.125 -6.140625 Z M 7.5 -6.28125 C 7.5 -9.703125 6.65625 -11.359375 4.953125 -11.359375 C 3.234375 -11.359375 2.390625 -9.71875 2.390625 -6.234375 C 2.390625 -2.734375 3.234375 -1.046875 4.90625 -1.046875 C 6.671875 -1.046875 7.5 -2.65625 7.5 -6.28125 Z M 7.5 -6.28125 "/>
</g>
<g id="glyph-4-1-e2e6c56a">
<path d="M 3.4375 0 C 3.4375 0 1.5625 0 1.5625 0 C 1.5625 0 1.5625 -1.875 1.5625 -1.875 C 1.5625 -1.875 3.4375 -1.875 3.4375 -1.875 C 3.4375 -1.875 3.4375 0 3.4375 0 Z M 3.4375 0 "/>
</g>
<g id="glyph-5-0-e2e6c56a">
<path d="M 9.125 -6.140625 C 9.125 -1.9375 7.65625 0.265625 4.953125 0.265625 C 2.21875 0.265625 0.78125 -1.9375 0.78125 -6.25 C 0.78125 -10.53125 2.203125 -12.765625 4.953125 -12.765625 C 7.71875 -12.765625 9.125 -10.5625 9.125 -6.140625 Z M 7.5 -6.28125 C 7.5 -9.703125 6.65625 -11.359375 4.953125 -11.359375 C 3.234375 -11.359375 2.390625 -9.71875 2.390625 -6.234375 C 2.390625 -2.734375 3.234375 -1.046875 4.90625 -1.046875 C 6.671875 -1.046875 7.5 -2.65625 7.5 -6.28125 Z M 7.5 -6.28125 "/>
</g>
<g id="glyph-6-0-e2e6c56a">
<path d="M 9.125 -6.140625 C 9.125 -1.9375 7.65625 0.265625 4.953125 0.265625 C 2.21875 0.265625 0.78125 -1.9375 0.78125 -6.25 C 0.78125 -10.53125 2.203125 -12.765625 4.953125 -12.765625 C 7.71875 -12.765625 9.125 -10.5625 9.125 -6.140625 Z M 7.5 -6.28125 C 7.5 -9.703125 6.65625 -11.359375 4.953125 -11.359375 C 3.234375 -11.359375 2.390625 -9.71875 2.390625 -6.234375 C 2.390625 -2.734375 3.234375 -1.046875 4.90625 -1.046875 C 6.671875 -1.046875 7.5 -2.65625 7.5 -6.28125 Z M 7.5 -6.28125 "/>
</g>
<g id="glyph-6-1-e2e6c56a">
<path d="M 3.4375 0 C 3.4375 0 1.5625 0 1.5625 0 C 1.5625 0 1.5625 -1.875 1.5625 -1.875 C 1.5625 -1.875 3.4375 -1.875 3.4375 -1.875 C 3.4375 -1.875 3.4375 0 3.4375 0 Z M 3.4375 0 "/>
</g>
<g id="glyph-6-2-e2e6c56a">
<path d="M 9.234375 -4.234375 C 9.234375 -1.53125 7.4375 0.265625 4.859375 0.265625 C 2.59375 0.265625 1.15625 -0.734375 0.625 -3.28125 C 0.625 -3.28125 2.21875 -3.28125 2.21875 -3.28125 C 2.59375 -1.84375 3.4375 -1.140625 4.828125 -1.140625 C 6.546875 -1.140625 7.609375 -2.171875 7.609375 -4.015625 C 7.609375 -5.90625 6.53125 -7 4.828125 -7 C 3.828125 -7 3.21875 -6.703125 2.484375 -5.8125 C 2.484375 -5.8125 1.03125 -5.8125 1.03125 -5.8125 C 1.03125 -5.8125 1.984375 -12.484375 1.984375 -12.484375 C 1.984375 -12.484375 8.5625 -12.484375 8.5625 -12.484375 C 8.5625 -12.484375 8.5625 -10.921875 8.5625 -10.921875 C 8.5625 -10.921875 3.265625 -10.921875 3.265625 -10.921875 C 3.265625 -10.921875 2.75 -7.625 2.75 -7.625 C 3.484375 -8.171875 4.21875 -8.40625 5.109375 -8.40625 C 7.5625 -8.40625 9.234375 -6.75 9.234375 -4.234375 Z M 9.234375 -4.234375 "/>
</g>
<g id="glyph-7-0-e2e6c56a">
<path d="M 9.125 -6.140625 C 9.125 -1.9375 7.65625 0.265625 4.953125 0.265625 C 2.21875 0.265625 0.78125 -1.9375 0.78125 -6.25 C 0.78125 -10.53125 2.203125 -12.765625 4.953125 -12.765625 C 7.71875 -12.765625 9.125 -10.5625 9.125 -6.140625 Z M 7.5 -6.28125 C 7.5 -9.703125 6.65625 -11.359375 4.953125 -11.359375 C 3.234375 -11.359375 2.390625 -9.71875 2.390625 -6.234375 C 2.390625 -2.734375 3.234375 -1.046875 4.90625 -1.046875 C 6.671875 -1.046875 7.5 -2.65625 7.5 -6.28125 Z M 7.5 -6.28125 "/>
</g>
<g id="glyph-8-0-e2e6c56a">
<path d="M 9.125 -6.140625 C 9.125 -1.9375 7.65625 0.265625 4.953125 0.265625 C 2.21875 0.265625 0.78125 -1.9375 0.78125 -6.25 C 0.78125 -10.53125 2.203125 -12.765625 4.953125 -12.765625 C 7.71875 -12.765625 9.125 -10.5625 9.125 -6.140625 Z M 7.5 -6.28125 C 7.5 -9.703125 6.65625 -11.359375 4.953125 -11.359375 C 3.234375 -11.359375 2.390625 -9.71875 2.390625 -6.234375 C 2.390625 -2.734375 3.234375 -1.046875 4.90625 -1.046875 C 6.671875 -1.046875 7.5 -2.65625 7.5 -6.28125 Z M 7.5 -6.28125 "/>
</g>
<g id="glyph-8-1-e2e6c56a">
<path d="M 3.4375 0 C 3.4375 0 1.5625 0 1.5625 0 C 1.5625 0 1.5625 -1.875 1.5625 -1.875 C 1.5625 -1.875 3.4375 -1.875 3.4375 -1.875 C 3.4375 -1.875 3.4375 0 3.4375 0 Z M 3.4375 0 "/>
</g>
<g id="glyph-9-0-e2e6c56a">
<path d="M 6.25 0 C 6.25 0 4.65625 0 4.65625 0 C 4.65625 0 4.65625 -9.09375 4.65625 -9.09375 C 4.65625 -9.09375 1.84375 -9.09375 1.84375 -9.09375 C 1.84375 -9.09375 1.84375 -10.21875 1.84375 -10.21875 C 4.28125 -10.53125 4.640625 -10.796875 5.203125 -12.765625 C 5.203125 -12.765625 6.25 -12.765625 6.25 -12.765625 C 6.25 -12.765625 6.25 0 6.25 0 Z M 6.25 0 "/>
</g>
</g>
</defs>
<rect x="-60" y="-45" width="720" height="540" fill="rgb(100%, 100%, 100%)" fill-opacity="1"/>
<path fill-rule="nonzero" fill="rgb(100%, 100%, 100%)" fill-opacity="1" d="M 60 406 L 584 406 L 584 16 L 60 16 Z M 60 406 "/>
<g fill="rgb(0%, 0%, 0%)" fill-opacity="1">
<use xlink:href="#glyph-0-0-e2e6c56a" x="69.510666" y="431.046021"/>
</g>
<g fill="rgb(0%, 0%, 0%)" fill-opacity="1">
<use xlink:href="#glyph-1-0-e2e6c56a" x="196.440765" y="431.046021"/>
</g>
<g fill="rgb(0%, 0%, 0%)" fill-opacity="1">
<use xlink:href="#glyph-1-1-e2e6c56a" x="206.448776" y="431.046021"/>
</g>
<g fill="rgb(0%, 0%, 0%)" fill-opacity="1">
<use xlink:href="#glyph-2-0-e2e6c56a" x="328.374908" y="431.046021"/>
</g>
<g fill="rgb(0%, 0%, 0%)" fill-opacity="1">
<use xlink:href="#glyph-0-0-e2e6c56a" x="338.382904" y="431.046021"/>
</g>
<g fill="rgb(0%, 0%, 0%)" fill-opacity="1">
<use xlink:href="#glyph-0-1-e2e6c56a" x="460.309021" y="431.046021"/>
</g>
<g fill="rgb(0%, 0%, 0%)" fill-opacity="1">
<use xlink:href="#glyph-3-0-e2e6c56a" x="470.317017" y="431.046021"/>
</g>
<g fill="rgb(0%, 0%, 0%)" fill-opacity="1">
<use xlink:href="#glyph-4-0-e2e6c56a" x="14.972001" y="394.83371"/>
</g>
<g fill="rgb(0%, 0%, 0%)" fill-opacity="1">
<use xlink:href="#glyph-4-1-e2e6c56a" x="24.980003" y="394.83371"/>
</g>
<g fill="rgb(0%, 0%, 0%)" fill-opacity="1">
<use xlink:href="#glyph-5-0-e2e6c56a" x="29.984003" y="394.83371"/>
</g>
<g fill="rgb(0%, 0%, 0%)" fill-opacity="1">
<use xlink:href="#glyph-4-0-e2e6c56a" x="39.992004" y="394.83371"/>
</g>
<g fill="rgb(0%, 0%, 0%)" fill-opacity="1">
<use xlink:href="#glyph-6-0-e2e6c56a" x="14.972001" y="211.050278"/>
</g>
<g fill="rgb(0%, 0%, 0%)" fill-opacity="1">
<use xlink:href="#glyph-6-1-e2e6c56a" x="24.980003" y="211.050278"/>
</g>
<g fill="rgb(0%, 0%, 0%)" fill-opacity="1">
<use xlink:href="#glyph-7-0-e2e6c56a" x="29.984003" y="211.050278"/>
</g>
<g fill="rgb(0%, 0%, 0%)" fill-opacity="1">
<use xlink:href="#glyph-6-2-e2e6c56a" x="39.992004" y="211.050278"/>
</g>
<g fill="rgb(0%, 0%, 0%)" fill-opacity="1">
<use xlink:href="#glyph-8-0-e2e6c56a" x="14.972001" y="27.266813"/>
</g>
<g fill="rgb(0%, 0%, 0%)" fill-opacity="1">
<use xlink:href="#glyph-8-1-e2e6c56a" x="24.980003" y="27.266813"/>
</g>
<g fill="rgb(0%, 0%, 0%)" fill-opacity="1">
<use xlink:href="#glyph-9-0-e2e6c56a" x="29.984003" y="27.266813"/>
</g>
<g fill="rgb(0%, 0%, 0%)" fill-opacity="1">
<use xlink:href="#glyph-8-0-e2e6c56a" x="39.992004" y="27.266813"/>
</g>
<path fill-rule="nonzero" fill="rgb(0%, 44.705883%, 69.803923%)" fill-opacity="0.8" d="M 83.816406 388.265625 L 88.605469 388.265625 L 91 388.261719 L 93.394531 388.253906 L 95.789062 388.25 L 98.179688 388.238281 L 100.574219 388.222656 L 102.96875 388.199219 L 105.363281 388.171875 L 107.757812 388.132812 L 110.148438 388.078125 L 112.542969 388.011719 L 114.9375 387.917969 L 117.332031 387.800781 L 119.726562 387.652344 L 122.117188 387.460938 L 124.511719 387.226562 L 126.90625 386.9375 L 129.300781 386.582031 L 131.695312 386.15625 L 134.085938 385.648438 L 136.480469 385.046875 L 138.875 384.351562 L 141.269531 383.546875 L 143.664062 382.628906 L 146.054688 381.59375 L 148.449219 380.4375 L 150.84375 379.164062 L 153.238281 377.769531 L 155.632812 376.261719 L 158.027344 374.648438 L 160.417969 372.941406 L 162.8125 371.152344 L 165.207031 369.296875 L 167.601562 367.390625 L 169.996094 365.457031 L 172.386719 363.515625 L 174.78125 361.582031 L 177.175781 359.671875 L 179.570312 357.804688 L 181.964844 355.992188 L 184.355469 354.234375 L 186.75 352.535156 L 189.144531 350.890625 L 191.539062 349.28125 L 193.933594 347.6875 L 196.328125 346.078125 L 198.71875 344.421875 L 201.113281 342.667969 L 203.507812 340.777344 L 205.902344 338.703125 L 208.296875 336.390625 L 210.6875 333.796875 L 213.082031 330.882812 L 215.476562 327.617188 L 217.871094 323.984375 L 220.265625 319.964844 L 222.65625 315.574219 L 225.050781 310.824219 L 227.445312 305.753906 L 229.839844 300.40625 L 232.234375 294.835938 L 234.625 289.117188 L 237.019531 283.320312 L 239.414062 277.519531 L 241.808594 271.800781 L 244.203125 266.238281 L 246.59375 260.898438 L 248.988281 255.847656 L 251.382812 251.140625 L 253.777344 246.820312 L 256.171875 242.917969 L 258.566406 239.449219 L 260.957031 236.417969 L 263.351562 233.8125 L 265.746094 231.621094 L 268.140625 229.800781 L 270.535156 228.316406 L 272.925781 227.109375 L 275.320312 226.117188 L 277.714844 225.277344 L 280.109375 224.511719 L 282.503906 223.738281 L 284.894531 222.886719 L 287.289062 221.867188 L 289.683594 220.605469 L 292.078125 219.023438 L 294.472656 217.050781 L 296.867188 214.625 L 299.257812 211.691406 L 301.652344 208.203125 L 304.046875 204.125 L 306.441406 199.4375 L 308.835938 194.132812 L 311.226562 188.207031 L 313.621094 181.675781 L 316.015625 174.570312 L 318.410156 166.929688 L 320.804688 158.796875 L 323.195312 150.242188 L 325.589844 141.332031 L 327.984375 132.152344 L 330.378906 122.789062 L 332.773438 113.34375 L 335.164062 103.925781 L 337.558594 94.640625 L 339.953125 85.613281 L 342.347656 76.957031 L 344.742188 68.792969 L 347.132812 61.234375 L 349.527344 54.390625 L 351.921875 48.375 L 354.316406 43.28125 L 356.710938 39.199219 L 359.105469 36.203125 L 361.496094 34.363281 L 363.890625 33.726562 L 366.285156 34.339844 L 368.679688 36.230469 L 371.074219 39.410156 L 373.464844 43.882812 L 375.859375 49.625 L 378.253906 56.617188 L 380.648438 64.8125 L 383.042969 74.144531 L 385.433594 84.539062 L 387.828125 95.902344 L 390.222656 108.128906 L 392.617188 121.09375 L 395.011719 134.667969 L 397.402344 148.703125 L 399.796875 163.058594 L 402.191406 177.578125 L 404.585938 192.113281 L 406.980469 206.523438 L 409.375 220.671875 L 411.765625 234.425781 L 414.160156 247.671875 L 416.554688 260.3125 L 418.949219 272.265625 L 421.34375 283.453125 L 423.734375 293.824219 L 426.128906 303.34375 L 428.523438 311.984375 L 430.917969 319.734375 L 433.3125 326.605469 L 435.703125 332.609375 L 438.097656 337.78125 L 440.492188 342.160156 L 442.886719 345.804688 L 445.28125 348.78125 L 447.671875 351.15625 L 450.066406 353.019531 L 452.460938 354.449219 L 454.855469 355.539062 L 457.25 356.371094 L 459.644531 357.039062 L 462.035156 357.617188 L 464.429688 358.179688 L 466.824219 358.785156 L 469.21875 359.488281 L 471.613281 360.320312 L 474.003906 361.304688 L 476.398438 362.449219 L 478.792969 363.757812 L 481.1875 365.207031 L 483.582031 366.78125 L 485.972656 368.449219 L 488.367188 370.175781 L 490.761719 371.929688 L 493.15625 373.671875 L 495.550781 375.371094 L 497.945312 377 L 500.335938 378.53125 L 502.730469 379.949219 L 505.125 381.242188 L 507.519531 382.402344 L 509.914062 383.425781 L 512.304688 384.316406 L 514.699219 385.082031 L 517.09375 385.726562 L 519.488281 386.265625 L 521.882812 386.710938 L 524.273438 387.070312 L 526.667969 387.355469 L 529.0625 387.582031 L 531.457031 387.757812 L 533.851562 387.894531 L 536.242188 388 L 538.636719 388.074219 L 541.03125 388.132812 L 543.425781 388.175781 L 545.820312 388.203125 L 548.210938 388.226562 L 550.605469 388.242188 L 555.394531 388.257812 L 560.183594 388.265625 L 560.183594 388.273438 L 83.816406 388.273438 Z M 83.816406 388.265625 "/>
<path fill="none" stroke-width="1" stroke-linecap="butt" stroke-linejoin="miter" stroke="rgb(0%, 0%, 0%)" stroke-opacity="1" stroke-miterlimit="1.154701" d="M 74.515625 406.5 L 74.515625 411.5 "/>
<path fill="none" stroke-width="1" stroke-linecap="butt" stroke-linejoin="miter" stroke="rgb(0%, 0%, 0%)" stroke-opacity="1" stroke-miterlimit="1.154701" d="M 206.449219 406.5 L 206.449219 411.5 "/>
<path fill="none" stroke-width="1" stroke-linecap="butt" stroke-linejoin="miter" stroke="rgb(0%, 0%, 0%)" stroke-opacity="1" stroke-miterlimit="1.154701" d="M 338.382812 406.5 L 338.382812 411.5 "/>
<path fill="none" stroke-width="1" stroke-linecap="butt" stroke-linejoin="miter" stroke="rgb(0%, 0%, 0%)" stroke-opacity="1" stroke-miterlimit="1.154701" d="M 470.316406 406.5 L 470.316406 411.5 "/>
<path fill="none" stroke-width="1" stroke-linecap="butt" stroke-linejoin="miter" stroke="rgb(0%, 0%, 0%)" stroke-opacity="1" stroke-miterlimit="1.154701" d="M 59.5 388.273438 L 54.5 388.273438 "/>
<path fill="none" stroke-width="1" stroke-linecap="butt" stroke-linejoin="miter" stroke="rgb(0%, 0%, 0%)" stroke-opacity="1" stroke-miterlimit="1.154701" d="M 59.5 204.488281 L 54.5 204.488281 "/>
<path fill="none" stroke-width="1" stroke-linecap="butt" stroke-linejoin="miter" stroke="rgb(0%, 0%, 0%)" stroke-opacity="1" stroke-miterlimit="1.154701" d="M 59.5 20.707031 L 54.5 20.707031 "/>
<path fill="none" stroke-width="1" stroke-linecap="butt" stroke-linejoin="miter" stroke="rgb(0%, 0%, 0%)" stroke-opacity="1" stroke-miterlimit="1.154701" d="M 59.5 406 L 584.5 406 "/>
<path fill="none" stroke-width="1" stroke-linecap="butt" stroke-linejoin="miter" stroke="rgb(0%, 0%, 0%)" stroke-opacity="1" stroke-miterlimit="1.154701" d="M 60 406.5 L 60 15.5 "/>
</svg>
